<svg xmlns="http://www.w3.org/2000/svg" xml:space="preserve" id="Layer_1" width="287.2" height="286.8" x="0" y="0" version="1.1" viewBox="0 0 287.2 286.8">
  <style id="style1" type="text/css">
    .st0{fill:#20385b}
    .st3{fill:url(#SVGID_00000160896060327195637080000015721837646796660413_)}
    .st4{fill:#0052cc}
  </style>
  <g id="g17" transform="matrix(4 0 0 4 -108.4 -332.8)">
    <g id="Logo_Lock-up">
      <path id="path5" d="M95.9 83.2H61.3c0 8.6 7 15.6 15.6 15.6h6.4v6.1c0 8.6 7 15.6 15.6 15.6V86.2c0-1.7-1.4-3-3-3z" style="fill:#0082ff"/>
      <linearGradient id="SVGID_1_" x1="81.033" x2="66.323" y1="101.527" y2="86.357" gradientTransform="matrix(1 0 0 -1 0 202)" gradientUnits="userSpaceOnUse">
        <stop id="stop5" offset=".18" style="stop-color:#0050d3"/>
        <stop id="stop6" offset="1" style="stop-color:#0082ff"/>
      </linearGradient>
      <path id="path6" d="M78.8 100.4H44.2c0 8.6 7 15.6 15.6 15.6h6.4v6.2c0 8.6 7 15.6 15.6 15.6v-34.3c0-1.7-1.4-3.1-3-3.1z" style="fill:url(#SVGID_1_)"/>
      <linearGradient id="SVGID_00000142868825077026769710000002171626036159817864_" x1="64.897" x2="47.887" y1="84.203" y2="67.653" gradientTransform="matrix(1 0 0 -1 0 202)" gradientUnits="userSpaceOnUse">
        <stop id="stop7" offset=".18" style="stop-color:#0050d3"/>
        <stop id="stop8" offset="1" style="stop-color:#0082ff"/>
      </linearGradient>
      <path id="path8" d="M61.7 117.6H27.1c0 8.6 7 15.6 15.6 15.6H49v6.1c0 8.6 7 15.6 15.6 15.6v-34.4c.1-1.5-1.3-2.9-2.9-2.9z" style="fill:url(#SVGID_00000142868825077026769710000002171626036159817864_)"/>
    </g>
  </g>
  <g id="g18" transform="matrix(.04306 0 0 .04306 115.798 110.438)">
    <g id="g2" transform="translate(2048.007 1958.53) scale(6.1623)">
      <linearGradient id="a" x1="198.047" x2="309.498" y1="93.277" y2="236.801" gradientTransform="translate(-601.29 -296.47) scale(3.7795)" gradientUnits="userSpaceOnUse">
        <stop id="stop1" offset="0%" stop-color="#3ac8f3"/>
        <stop id="stop2" offset="100%" stop-color="#1b9de3"/>
      </linearGradient>
      <path id="path2" fill="url(#a)" d="M371.125.01C310.532.45 241.557 15.667 183.094 53.043 105.142 102.877 45.882 192.106 19.28 263.996c-26.6 71.89-20.541 126.44-12.039 166.846 8.502 40.406 19.446 66.67 31.82 82.158 12.375 15.489 26.181 20.202 40.07 20.117 13.89-.084 27.863-4.967 44.446-17.594 16.583-12.626 35.776-32.997 51.686-49.328 15.91-16.33 28.537-28.62 39.06-34.765 10.523-6.146 18.94-6.146 27.78-3.367 8.839 2.778 18.098 8.333 24.664 15.068 6.565 6.735 10.439 14.647 11.617 23.57 1.178 8.923-.338 18.855-6.567 27.694-6.229 8.838-17.171 16.583-26.431 30.894-9.26 14.311-16.838 35.187-12.881 54.717 3.957 19.53 19.447 37.713 36.451 47.982 17.005 10.27 35.523 12.627 87.377-8.25 51.854-20.876 137.043-64.986 191.424-129.13 54.38-64.145 77.949-148.323 79.465-219.708 1.515-71.384-19.023-129.972-51.516-175.935-32.493-45.963-76.94-79.297-147.482-90.746-17.636-2.863-36.902-4.356-57.1-4.21Zm-28.219 315.36a42.594 42.594 0 0 1 42.594 42.593 42.594 42.594 0 0 1-42.594 42.596 42.594 42.594 0 0 1-42.594-42.596 42.594 42.594 0 0 1 42.594-42.594z" style="fill:url(#a)" transform="translate(-313.65 -317.825)"/>
    </g>
    <path id="path3" fill="gray" d="M273.187 128.038a4.273 4.273 0 0 0-4.158 5.293c3.394 7.507 7.924 14.924 11.428 21.257h18.35l10.319-19.276c.561-.976 1.065-2.059 1.08-2.991a4.273 4.273 0 0 0-4.282-4.283zm7.27 26.55v9.061a2.555 2.555 0 0 0-.001.215v2.442h.093l2.387 62.378c4.696-3.019 9.383-6.412 13.776-10.168l1.99-52.21h.105v-11.717z" transform="translate(-3540.288 -1826.915) scale(23.2904)"/>
    <g id="g4" transform="translate(3205.268 2956.458) scale(6.1623)">
      <linearGradient id="b" x1="1179.858" x2="1089.955" y1="633.366" y2="935.401" gradientUnits="userSpaceOnUse">
        <stop id="stop3" offset="0%" stop-color="#78400a"/>
        <stop id="stop4" offset="100%" stop-color="#9a5605"/>
      </linearGradient>
      <path id="path4" fill="url(#b)" d="M1106.794 591.31c-12.497 0-47.396 12.507-46.803 28.018l12.122 316.843c.594 15.511 10.062 24.99 22.559 24.99 12.497 0 21.965-9.479 22.556-24.99l12.078-316.798c.591-15.511-10.016-28.062-22.512-28.062z" style="fill:url(#b)" transform="translate(-1094.657 -776.235)"/>
    </g>
    <g id="g6" transform="translate(3205.357 1909.96) scale(23.2904)">
      <linearGradient id="c" x1="279.831" x2="303.618" y1="168.914" y2="154.482" gradientTransform="translate(-289.632 -160.447)" gradientUnits="userSpaceOnUse">
        <stop id="stop5-3" offset="0%" stop-color="#ececec"/>
        <stop id="stop6-1" offset="100%" stop-color="#9396a0"/>
      </linearGradient>
      <rect id="rect6" width="18.35" height="11.717" x="-9.175" y="-5.859" fill="url(#c)" rx="0" ry="0" style="fill:url(#c)"/>
    </g>
    <g id="g8" transform="translate(3203.587 1464.327) scale(6.1623)">
      <linearGradient id="d" x1="1053.589" x2="1154.604" y1="481.843" y2="582.858" gradientUnits="userSpaceOnUse">
        <stop id="stop7-8" offset="0%" stop-color="#f0d69f"/>
        <stop id="stop8-3" offset="100%" stop-color="#c39360"/>
      </linearGradient>
      <path id="path8-6" fill="url(#d)" d="M1032.518 483.924a16.149 16.149 0 0 0-15.717 20.006c12.831 28.37 29.949 56.404 43.193 80.34h69.354l39.003-72.855c2.122-3.689 4.024-7.78 4.083-11.306a16.15 16.15 0 0 0-16.186-16.185z" style="fill:url(#d)" transform="translate(-1094.384 -534.097)"/>
    </g>
    <circle id="circle8" cx="0" cy="0" r="15.097" fill="gray" transform="translate(698.38 2055.309) scale(23.2904)"/>
    <g id="g10" transform="translate(696.981 2030.809) scale(23.2904)">
      <linearGradient id="e" x1="172.122" x2="200.185" y1="151.275" y2="179.338" gradientTransform="translate(-185.243 -165.636)" gradientUnits="userSpaceOnUse">
        <stop id="stop9" offset="0%" stop-color="#db5317"/>
        <stop id="stop10" offset="100%" stop-color="#c23807"/>
      </linearGradient>
      <circle id="circle10" cx="0" cy="0" r="15.097" fill="url(#e)" style="fill:url(#e)"/>
    </g>
    <circle id="circle11" cx="0" cy="0" r="15.097" fill="gray" transform="translate(1147.347 1168.378) scale(23.2904)"/>
    <g id="g12" transform="translate(1145.948 1143.877) scale(23.2904)">
      <linearGradient id="f" x1="193.77" x2="216.756" y1="110.115" y2="138.178" gradientTransform="translate(-204.52 -127.555)" gradientUnits="userSpaceOnUse">
        <stop id="stop11" offset="0%" stop-color="#4fb412"/>
        <stop id="stop12" offset="100%" stop-color="#188313"/>
      </linearGradient>
      <circle id="circle12" cx="0" cy="0" r="15.097" fill="url(#f)" style="fill:url(#f)"/>
    </g>
    <circle id="circle13" cx="0" cy="0" r="15.097" fill="#666" transform="translate(2115.709 803.041) scale(23.2904)"/>
    <g id="g14" transform="translate(2114.31 778.541) scale(23.2904)">
      <linearGradient id="g" x1="235.197" x2="260.588" y1="102.899" y2="125.617" gradientTransform="translate(-246.097 -111.868)" gradientUnits="userSpaceOnUse">
        <stop id="stop13" offset="0%" stop-color="#fddd01"/>
        <stop id="stop14" offset="100%" stop-color="#f7a810"/>
      </linearGradient>
      <circle id="circle14" cx="0" cy="0" r="15.097" fill="url(#g)" style="fill:url(#g)"/>
    </g>
  </g>
</svg>
